<svg width="60" height="60" viewBox="0 0 60 60" fill="none" xmlns="http://www.w3.org/2000/svg">
<circle cx="30" cy="30" r="30" fill="#F2F2F2"/>
<path d="M35.6836 16.5625V45H29.8242L18.3984 25.9375V45H12.5391V16.5625H18.3984L29.8438 35.6445V16.5625H35.6836Z" fill="#363131"/>
<path d="M41.6133 34.8633H34.3672V30.293H41.6133C42.7331 30.293 43.6445 30.1107 44.3477 29.7461C45.0508 29.3685 45.5651 28.8477 45.8906 28.1836C46.2161 27.5195 46.3789 26.7708 46.3789 25.9375C46.3789 25.0911 46.2161 24.3034 45.8906 23.5742C45.5651 22.8451 45.0508 22.2591 44.3477 21.8164C43.6445 21.3737 42.7331 21.1523 41.6133 21.1523H36.3984V45H30.5391V16.5625H41.6133C43.8398 16.5625 45.7474 16.9661 47.3359 17.7734C48.9375 18.5677 50.1615 19.668 51.0078 21.0742C51.8542 22.4805 52.2773 24.0885 52.2773 25.8984C52.2773 27.7344 51.8542 29.3229 51.0078 30.6641C50.1615 32.0052 48.9375 33.0404 47.3359 33.7695C45.7474 34.4987 43.8398 34.8633 41.6133 34.8633Z" fill="#363131"/>
</svg>
