<svg width="60" height="60" viewBox="0 0 60 60" fill="none" xmlns="http://www.w3.org/2000/svg">
<path d="M34.6836 15.5625V44H28.8242L17.3984 24.9375V44H11.5391V15.5625H17.3984L28.8438 34.6445V15.5625H34.6836Z" fill="#363131"/>
<path d="M40.6133 33.8633H33.3672V29.293H40.6133C41.7331 29.293 42.6445 29.1107 43.3477 28.7461C44.0508 28.3685 44.5651 27.8477 44.8906 27.1836C45.2161 26.5195 45.3789 25.7708 45.3789 24.9375C45.3789 24.0911 45.2161 23.3034 44.8906 22.5742C44.5651 21.8451 44.0508 21.2591 43.3477 20.8164C42.6445 20.3737 41.7331 20.1523 40.6133 20.1523H35.3984V44H29.5391V15.5625H40.6133C42.8398 15.5625 44.7474 15.9661 46.3359 16.7734C47.9375 17.5677 49.1615 18.668 50.0078 20.0742C50.8542 21.4805 51.2773 23.0885 51.2773 24.8984C51.2773 26.7344 50.8542 28.3229 50.0078 29.6641C49.1615 31.0052 47.9375 32.0404 46.3359 32.7695C44.7474 33.4987 42.8398 33.8633 40.6133 33.8633Z" fill="#363131"/>
</svg>
